<?xml version="1.0" encoding="UTF-8" standalone="no"?>
<svg
	xmlns="http://www.w3.org/2000/svg"
	xmlns:svg="http://www.w3.org/2000/svg"
	version="1.1"
	xml:space="preserve"
	width="558.41333"
	height="244.56"
	viewBox="0 0 558.41333 244.56"
>
	<defs>
		<linearGradient
			x1="0"
			y1="0"
			x2="1"
			y2="0"
			gradientUnits="userSpaceOnUse"
			gradientTransform="matrix(-223.19733,-146.14133,146.14133,-223.19733,546.93065,171.16134)"
			spreadMethod="pad"
			id="orange-magenta"
		>
			<stop
				id="magenta"
				offset="0"
				style="stop-color:#ed1480;stop-opacity:1"
			/>
			<stop
				id="orange"
				offset="0.82110101"
				style="stop-color:#f6851f;stop-opacity:1"
			/>
			<stop
				id="yellow"
				offset="1"
				style="stop-color:#f8a330;stop-opacity:1"
			/>
		</linearGradient>
	</defs>
	<g
		id="scanpy"
		transform="matrix(1.3333333,0,0,-1.3333333,0,244.56)"
		style="fill:#b0aaaa;fill-opacity:1;fill-rule:nonzero;stroke:none;stroke-width:0.1"
	>
		<path
			id="s"
			d="M 3.44648,40.9559 C 5.47773,39.45 7.84102,38.218 10.5375,37.243 c 2.6938,-0.9711 5.3219,-1.4571 7.8863,-1.4571 1.5899,0 3.202,0.175 4.8379,0.5301 1.6336,0.352 3.1141,0.9481 4.4399,1.782 1.325,0.8391 2.4062,1.8969 3.2464,3.1739 0.8418,1.2781 1.2161,2.8441 1.127,4.6972 0,1.409 -0.3105,2.5981 -0.9281,3.568 -0.6188,0.9699 -1.391,1.782 -2.3184,2.4438 -0.9289,0.6632 -1.968,1.239 -3.1152,1.7211 -1.1488,0.4832 -2.2531,0.948 -3.3129,1.3878 -0.8844,0.35 -1.7688,0.684 -2.6512,0.9911 -0.8847,0.3113 -1.8129,0.6421 -2.784,0.9921 -1.7687,0.6192 -3.557,1.3211 -5.3675,2.1149 -1.81215,0.7949 -3.46879,1.7609 -4.96997,2.9101 -1.5914,1.234 -2.91562,2.6872 -3.97656,4.3641 -1.06015,1.6719 -1.59023,3.8758 -1.59023,6.6098 0,2.7301 0.57422,5.1793 1.72304,7.339 1.14766,2.159 2.67188,3.968 4.57227,5.42 1.89961,1.4531 4.06365,2.5546 6.49535,3.3058 2.4289,0.75 4.9242,1.1231 7.4875,1.1231 3.0035,0 5.898,-0.4434 8.682,-1.3254 2.7832,-0.8817 5.5,-2.0762 8.1508,-3.577 l -3.5781,-5.7015 c -4.42,2.5632 -8.6614,3.8449 -12.7247,3.8449 -1.414,0 -2.8058,-0.1758 -4.1738,-0.5309 -1.3719,-0.3519 -2.6305,-0.9051 -3.7785,-1.6558 -1.1484,-0.75 -2.077,-1.702 -2.7828,-2.8469 -0.7082,-1.1512 -1.061,-2.5203 -1.061,-4.1094 0,-1.6808 0.4665,-3.0066 1.3981,-3.9758 0.9324,-0.975 2.1519,-1.814 3.6598,-2.5199 1.5078,-0.707 3.1925,-1.4402 5.0574,-2.1859 1.8629,-0.7551 3.7277,-1.484 5.5918,-2.1903 1.7719,-0.707 3.5695,-1.4347 5.3879,-2.1859 1.8183,-0.75 3.4836,-1.7461 4.9933,-2.9801 1.5969,-1.2379 2.9278,-2.7648 3.9922,-4.5738 1.0645,-1.8133 1.5969,-4.0422 1.5969,-6.693 0,-3.0953 -0.6957,-5.789 -2.0832,-8.0851 -1.3899,-2.3 -3.2016,-4.1969 -5.4336,-5.6981 -2.2352,-1.5051 -4.7215,-2.6328 -7.4594,-3.3801 -2.7402,-0.75 -5.4801,-1.1269 -8.2176,-1.1269 -3.3601,0 -6.65,0.6101 -9.87457,1.8223 C 5.45586,31.8012 2.5625,33.398 0,35.382 l 3.44648,5.5739"
		/>
		<path
			id="c"
			d="m 95.6945,35.259 c -2.8289,-1.857 -6.0304,-3.3399 -9.6093,-4.4418 -3.5789,-1.1063 -7.4887,-1.6594 -11.7297,-1.6594 -3.711,0 -7.025,0.8641 -9.9387,2.5852 -2.9141,1.725 -5.3719,3.9769 -7.377,6.7601 -2.0046,2.7821 -3.5312,5.9418 -4.5765,9.475 -1.0461,3.5348 -1.5668,7.116 -1.5668,10.7367 0,5.4774 1.0664,10.6704 3.2023,15.5731 2.136,4.907 5.2215,8.7691 9.2559,11.6008 2.0312,1.409 4.284,2.4492 6.7594,3.1109 2.4722,0.6633 5.0136,0.9484 7.6211,0.8656 2.605,-0.0929 5.2121,-0.5097 7.8195,-1.2597 2.6058,-0.7551 5.057,-1.8352 7.3558,-3.2481 l -2.7828,-5.1715 c -2.0339,0.975 -4.2871,1.7911 -6.7601,2.4539 -2.4746,0.6641 -4.8598,0.9051 -7.1567,0.7293 -2.6511,-0.18 -4.95,-1.0402 -6.8921,-2.5851 -1.9446,-1.5449 -3.5579,-3.4899 -4.8379,-5.834 -1.2817,-2.3391 -2.2532,-4.9461 -2.9157,-7.816 -0.6629,-2.875 -0.9941,-5.6801 -0.9941,-8.4192 0,-2.6519 0.3519,-5.325 1.0602,-8.0187 0.7066,-2.6949 1.7437,-5.1441 3.1152,-7.352 1.368,-2.2121 3.0918,-4.0421 5.1695,-5.5043 2.0746,-1.457 4.4832,-2.1859 7.2219,-2.1859 3.0926,-0.0879 5.8762,0.3512 8.3508,1.325 2.473,0.9699 5.0367,2.077 7.6875,3.3141 l 2.5183,-5.034"
		/>
		<path
			id="a"
			d="m 136.051,60.4391 c -1.512,0 -3.421,-0.0211 -5.731,-0.0653 -2.309,-0.0476 -4.661,-0.066 -7.059,-0.066 -3.732,-0.0918 -6.841,-1.1058 -9.326,-3.05 -2.487,-1.9449 -3.73,-4.7719 -3.73,-8.4808 0,-3.361 1.243,-6.3418 3.73,-8.9489 2.485,-2.607 5.683,-3.9551 9.593,-4.0422 2.841,0 5.417,0.5532 7.727,1.6582 2.308,1.1028 3.907,2.143 4.796,3.1118 z m 9.409,-21.2082 c -1.414,-1.4129 -3.027,-2.7387 -4.837,-3.9719 -1.812,-1.243 -3.799,-2.3 -5.964,-3.182 -2.166,-0.8872 -4.529,-1.5942 -7.091,-2.12 -2.563,-0.5308 -5.301,-0.7511 -8.218,-0.6629 -2.65,0 -5.126,0.5047 -7.422,1.518 -2.299,1.0098 -4.286,2.375 -5.964,4.091 -1.68,1.7168 -3.005,3.7438 -3.976,6.0789 -0.974,2.3309 -1.458,4.82 -1.458,7.4621 0.087,2.8137 0.64,5.3457 1.656,7.593 1.015,2.243 2.43,4.1399 4.243,5.6801 1.809,1.5406 3.909,2.7039 6.294,3.4976 2.386,0.7903 4.991,1.1903 7.82,1.1903 h 15.772 V 72.15 c 0,1.6898 -0.354,3.2262 -1.059,4.6051 -0.709,1.382 -1.637,2.5621 -2.784,3.5418 -1.149,0.9781 -2.498,1.7383 -4.043,2.2679 -1.546,0.5364 -3.114,0.8043 -4.705,0.8043 -2.916,0 -5.546,-0.355 -7.885,-1.0632 -2.343,-0.7059 -4.795,-1.72 -7.357,-3.045 l -2.385,5.5653 c 3.445,1.8562 6.67,3.1601 9.675,3.9109 3.003,0.75 6.495,1.1281 10.471,1.1281 2.386,0 4.749,-0.3996 7.09,-1.1945 2.341,-0.7937 4.395,-1.9219 6.163,-3.3789 1.767,-1.4578 3.203,-3.2477 4.309,-5.368 1.104,-2.1199 1.655,-4.5078 1.655,-7.1597 V 39.2309"
		/>
		<path
			id="n"
			d="M 195.826,30.3512 V 69.85 c 0,4.5078 -1.326,7.9309 -3.977,10.2711 -2.651,2.3398 -6.097,3.4676 -10.338,3.3797 -2.564,-0.0879 -5.016,-0.5977 -7.356,-1.5238 -2.342,-0.925 -4.264,-1.9211 -5.765,-2.984 V 30.3512 h -9.676 v 49.8347 c 2.473,1.77 4.882,3.3364 7.223,4.7067 2.341,1.3691 5.057,2.4531 8.152,3.2469 2.385,0.707 5.146,1.2597 8.283,1.6593 3.136,0.3953 6.429,0.1981 9.875,-0.5968 3.532,-0.7989 6.627,-2.409 9.278,-4.8407 2.65,-2.4285 3.975,-5.6324 3.975,-9.6082 V 30.3512 h -9.674" />
		<path
			id="p"
			d="m 229.488,41.0738 c 0.796,-0.5297 1.767,-1.1008 2.916,-1.7199 1.148,-0.6148 2.406,-1.1891 3.778,-1.716 1.369,-0.532 2.803,-0.9488 4.307,-1.2551 1.502,-0.3117 3.003,-0.4219 4.507,-0.3289 3.181,0.175 5.721,1.0082 7.621,2.5102 1.898,1.4961 3.334,3.3699 4.306,5.6179 0.972,2.243 1.611,4.666 1.923,7.2692 0.309,2.5976 0.465,5.1308 0.465,7.5976 0,2.3793 -0.156,4.9551 -0.465,7.7332 -0.312,2.7739 -0.926,5.3508 -1.857,7.7301 -0.926,2.3777 -2.296,4.4059 -4.108,6.0789 -1.811,1.6719 -4.218,2.5981 -7.223,2.7781 -2.033,0.0879 -3.955,-0.0441 -5.765,-0.3992 -1.811,-0.3519 -3.447,-0.7898 -4.904,-1.3219 -1.458,-0.5261 -2.651,-1.057 -3.578,-1.5839 -0.929,-0.527 -1.57,-0.97 -1.923,-1.3211 z m -9.41,-37.62771 0.133,76.20981 c 1.942,2.032 3.997,3.691 6.163,4.973 2.164,1.2774 4.947,2.4492 8.349,3.5106 3.401,1.0625 7.577,1.6328 12.527,1.7257 l 0.131,-0.1359 c 3.976,0.0871 7.4,-0.707 10.271,-2.3836 2.87,-1.6809 5.258,-3.9766 7.158,-6.8906 1.901,-2.9192 3.315,-6.277 4.241,-10.0731 0.93,-3.8019 1.391,-7.823 1.391,-12.0621 0,-3.714 -0.461,-7.3121 -1.391,-10.8027 -0.926,-3.4934 -2.364,-6.5832 -4.306,-9.2781 -1.944,-2.695 -4.374,-4.8852 -7.291,-6.561 -2.914,-1.6769 -6.362,-2.5601 -10.337,-2.6519 -3.27,-0.0883 -6.318,0.3636 -9.145,1.3519 -2.831,0.9918 -5.613,2.3438 -8.351,4.052 V 0.00117188 L 220.078,3.44609"
		/>
		<path
			id="y"
			d="m 296.42,6.36484 c 1.854,0.26329 3.864,0.57422 6.028,0.92618 2.166,0.35507 4.264,0.86015 6.299,1.52304 2.029,0.66211 3.908,1.57184 5.631,2.71684 1.724,1.15 3.068,2.65 4.043,4.5082 0.53,0.882 0.927,1.9879 1.193,3.3129 0.264,1.3261 0.463,2.696 0.597,4.1089 0.132,1.4129 0.22,2.8039 0.263,4.1743 0.044,1.3738 0.066,2.5847 0.066,3.6468 0,0.7071 0.022,1.1239 0.066,1.2559 0.044,0.1359 0.022,0.5531 -0.066,1.2601 -1.501,-0.707 -3.933,-1.6332 -7.288,-2.7839 -3.36,-1.145 -7.865,-1.72 -13.521,-1.72 -2.208,0 -4.418,0.3778 -6.626,1.1239 -2.21,0.75 -4.219,1.8558 -6.03,3.3129 -1.811,1.457 -3.27,3.248 -4.374,5.3679 -1.106,2.1211 -1.657,4.5082 -1.657,7.1602 v 40.2918 l 9.676,3.3144 V 49.173 49.3051 c 0,-4.5039 1.418,-7.8832 4.259,-10.1403 2.843,-2.2507 6.438,-3.3359 10.787,-3.2429 2.573,0.0832 5.193,0.7019 7.855,1.8519 2.662,1.15 4.791,2.2563 6.391,3.3141 v 47.3152 h 9.675 V 35.7859 c 0,-1.6769 -0.046,-3.5339 -0.133,-5.566 -0.09,-2.0328 -0.244,-4.064 -0.463,-6.0961 -0.222,-2.0316 -0.532,-3.9777 -0.929,-5.834 -0.398,-1.8519 -0.95,-3.4449 -1.656,-4.7707 -1.239,-2.2961 -2.961,-4.28394 -5.169,-5.96402 -2.21,-1.67695 -4.64,-3.04727 -7.29,-4.10899 -2.65,-1.05703 -5.368,-1.83007 -8.152,-2.31718 -2.784,-0.487894 -5.414,-0.773051 -7.884,-0.860941 L 296.42,6.36484"
		/>
	</g>
	<path
		id="shrimp"
		style="fill:url(#orange-magenta);fill-opacity:1;fill-rule:nonzero;stroke:none;stroke-width:0.13333333"
		d="M 362.14532,69.481338 H 235.06399 c -1.95866,4.648 -6.55466,7.909333 -11.91333,7.909333 -7.136,0 -12.92133,-5.785333 -12.92133,-12.92 0,-7.137333 5.78533,-12.922666 12.92133,-12.922666 5.38933,0 10.00533,3.302666 11.94267,7.990666 h 122.71866 c 0.0467,0.233334 0.06,0.476 0.11067,0.708 0.75066,3.377334 2.24266,6.430667 4.22266,9.234667 z m -3.648,-27.926666 h -70.44399 c -1.95734,4.648 -6.55467,7.910666 -11.91334,7.910666 -7.136,0 -12.92133,-5.785333 -12.92133,-12.922666 0,-7.136 5.78533,-12.921333 12.92133,-12.921333 5.38934,0 10.00534,3.302666 11.94267,7.990666 h 74.10533 c -1.59733,3.312 -2.84133,6.64 -3.69067,9.942667 z m 196.316,55.578665 c 6.63067,9.841333 4.84133,30.710533 -11.63333,39.340263 -14.816,7.75987 -31.96934,4.33854 -38.59867,-5.5032 -6.628,-9.84266 7.564,-10.83493 21.436,-20.1784 13.872,-9.344 22.168,-23.501329 28.796,-13.658663 z M 528.81465,42.406672 c 13.59334,14.631999 10.9,39.229332 -6.01333,54.938665 -16.912,15.709463 -41.64,16.583463 -55.23067,1.952 -13.59199,-14.633333 9.09734,-17.701333 26.00934,-33.411999 16.91333,-15.709333 21.644,-38.110666 35.23466,-23.478666 z M 409.15199,29.693339 c 6.08,-0.958667 11.78533,3.190666 12.744,9.270666 0.95733,6.078667 -3.192,11.785333 -9.27067,12.744 -6.08,0.958666 -11.78533,-3.192 -12.744,-9.272 -0.96,-6.077333 3.192,-11.782666 9.27067,-12.742666 z m -36.60267,27.305332 c 2.67467,12.042667 32.85867,23.553333 67.936,18.02 35.07867,-5.534667 60.912,-26.510666 57.70267,-46.853332 -3.20934,-20.3439997 -34.24667,-32.3479994 -69.324,-26.8146663 -35.07733,5.5333332 -60.78,35.5426663 -56.31467,55.6479983 z m 170.67067,95.435869 c -11.69467,-4.77294 -25.92267,15.59373 -30.536,26.89373 -4.61334,11.30106 -9.65467,21.30773 2.04133,26.0812 11.69333,4.77453 22.33867,-1.9536 29.528,-11.81774 8.66933,-11.89573 10.66133,-36.38226 -1.03333,-41.15719"
	/>
</svg>
